<?xml version="1.0" standalone="no"?><!DOCTYPE svg PUBLIC "-//W3C//DTD SVG 1.1//EN" "http://www.w3.org/Graphics/SVG/1.1/DTD/svg11.dtd"><svg t="1682651988970" class="icon" viewBox="0 0 1024 1024" version="1.1" xmlns="http://www.w3.org/2000/svg" p-id="4493" xmlns:xlink="http://www.w3.org/1999/xlink" width="200" height="200"><path d="M511.994264 511.994264m-511.994264 0a511.994264 511.994264 0 1 0 1023.988529 0 511.994264 511.994264 0 1 0-1023.988529 0Z" fill="#343541" p-id="4494" data-spm-anchor-id="a313x.7781069.0.i0" class=""></path><path d="M769.87841 652.183853h-53.444341V522.260992h53.444341zM789.528583 522.260992h-19.650173v129.922861h84.898383V522.260992h-65.24821z" fill="#10A37F" p-id="4495" data-spm-anchor-id="a313x.7781069.0.i5" class=""></path><path d="M772.012054 782.095242h-55.577985V652.172382H772.012054z" fill="#dd524d" p-id="4496" data-spm-anchor-id="a313x.7781069.0.i6" class=""></path><path d="M842.777913 782.095242h-72.910974V652.183853h84.886912v117.923981a11.99888 11.99888 0 0 1-11.975938 11.987408z" fill="#5436DA" p-id="4497" data-spm-anchor-id="a313x.7781069.0.i15" class=""></path><path d="M836.571992 522.260992H716.434069V392.338132h120.137923z" fill="#dd524d" p-id="4498" data-spm-anchor-id="a313x.7781069.0.i11" class=""></path><path d="M854.776793 522.260992h-65.24821V392.338132h65.24821z" fill="#ffffff" p-id="4499" data-spm-anchor-id="a313x.7781069.0.i14" class=""></path><path d="M348.518131 692.73456l-20.18932 88.95919H169.211736l126.951818-522.14628h224.124391l120.447646 522.157751H483.316253l-20.533455-88.959189z m28.047095-122.48952h58.170477l-28.735367-127.640091z" fill="#10A37F" p-id="4500" data-spm-anchor-id="a313x.7781069.0.i3" class=""></path><path d="M296.163554 259.54747l-22.896524 94.190059H542.014406l-21.726461-94.190059H296.163554z" fill="#5436DA" p-id="4501" data-spm-anchor-id="a313x.7781069.0.i4" class=""></path><path d="M220.625674 570.24504h214.1215l28.047095 122.48952H190.846427l29.779247-122.48952z" fill="#dd524d" p-id="4502" data-spm-anchor-id="a313x.7781069.0.i9" class=""></path><path d="M406.000336 442.604949h156.513112l29.435111 127.640091H434.747174l-28.746838-127.640091z" fill="#ffffff" p-id="4503" data-spm-anchor-id="a313x.7781069.0.i13" class=""></path><path d="M718.556241 241.893286h134.098379v47.61697H718.556241z" fill="#dd524d" p-id="4504" data-spm-anchor-id="a313x.7781069.0.i12" class=""></path><path d="M718.556241 288.087826h134.098379v47.61697H718.556241z" fill="#dd524d" p-id="4505" data-spm-anchor-id="a313x.7781069.0.i10" class=""></path></svg>