<?xml version="1.0" standalone="no"?><!DOCTYPE svg PUBLIC "-//W3C//DTD SVG 1.1//EN" "http://www.w3.org/Graphics/SVG/1.1/DTD/svg11.dtd"><svg t="1682657021116" class="icon" viewBox="0 0 1024 1024" version="1.1" xmlns="http://www.w3.org/2000/svg" p-id="7762" xmlns:xlink="http://www.w3.org/1999/xlink" width="200" height="200"><path d="M896 277.333333h-183.466667a21.333333 21.333333 0 0 0-16.64 7.893334l-433.066666 533.333333A21.333333 21.333333 0 0 0 279.466667 853.333333H896a21.333333 21.333333 0 0 0 21.333333-21.333333V298.666667a21.333333 21.333333 0 0 0-21.333333-21.333334z" fill="#10A37F" p-id="7763" data-spm-anchor-id="a313x.7781069.0.i19" class="selected"></path><path d="M169.173333 821.333333h469.333334v64h-469.333334zM277.333333 771.413333a58.88 58.88 0 0 1-55.893333-75.733333l48.213333-156.586667a85.333333 85.333333 0 0 1 21.333334-33.92l341.333333-403.84 48.853333 41.386667-343.04 405.333333-1.92 1.92a24.32 24.32 0 0 0-5.12 8.746667L284.8 704l146.56-45.226667a17.493333 17.493333 0 0 0 7.68-4.48L816.853333 192l2.133334-2.56a21.333333 21.333333 0 0 0 0-29.653333L768 109.44 813.44 64l50.773333 50.773333a85.333333 85.333333 0 0 1 1.28 119.893334L487.466667 696.96a11.093333 11.093333 0 0 1-2.133334 2.346667 87.893333 87.893333 0 0 1-35.2 21.333333L293.76 768a59.52 59.52 0 0 1-16.426667 3.413333z" p-id="7764" data-spm-anchor-id="a313x.7781069.0.i18" class="" fill="#ffffff"></path></svg>