<?xml version="1.0" standalone="no"?><!DOCTYPE svg PUBLIC "-//W3C//DTD SVG 1.1//EN" "http://www.w3.org/Graphics/SVG/1.1/DTD/svg11.dtd"><svg t="1682058894917" class="icon" viewBox="0 0 1024 1024" version="1.1" xmlns="http://www.w3.org/2000/svg" p-id="2663" xmlns:xlink="http://www.w3.org/1999/xlink" width="48" height="48"><path d="M227.84 519.68l-44.544-87.04h-47.616v197.632H184.32v-94.72l28.16 48.64h31.232l28.16-48.64v94.72h48.64V432.64h-47.616l-45.056 87.04z m658.432-87.04h-59.392l-57.344 70.144V432.64H721.92v197.632h48.128V568.32l16.896-18.944 45.568 80.896h56.832l-69.632-117.76 66.56-79.872z" fill="#10A37F" p-id="2664"></path><path d="M925.184 222.208l2.048-1.536c15.36-13.312 47.616-41.984 16.384-72.704-31.232-15.36-49.152 4.096-64.512 17.408l-56.32 48.64H147.968C66.56 213.504 0 280.064 0 361.984V701.44c0 64.512 41.472 119.296 98.816 139.776l-2.048 1.536c-15.36 13.312-16.896 36.352-3.584 51.712 7.168 8.192 17.408 12.8 27.648 12.8 8.704 0 16.896-3.072 24.064-9.216l56.32-48.64H875.52c81.92 0 147.968-66.56 147.968-147.968V361.984c0.512-64.512-40.96-119.808-98.304-139.776zM147.968 768.512c-37.376 0-67.584-30.208-67.584-67.584V361.984c0-37.376 30.208-67.584 67.584-67.584h581.12l-159.744 138.24h-29.184v25.088L477.184 512l-29.184-79.36h-37.376l-71.68 197.632h2.048l-159.744 138.24h-33.28z m441.856-256l37.888-32.768c6.144 3.584 9.216 10.24 9.216 16.384 0 9.728-7.168 19.456-20.48 19.456h-26.624v-3.072z m-167.424 47.616h-8.704l17.92-52.736 11.264 35.328-20.48 17.408z m520.704 140.8c0 37.376-30.208 67.584-67.584 67.584H294.912L466.944 619.52l3.584 10.752h50.688l-15.872-44.032 35.84-31.232v75.264h48.64v-73.728h16.384l34.816 73.728h56.32l-42.496-82.432c15.36-7.68 32.256-24.576 32.256-51.712 0-18.432-7.68-36.352-22.016-48.128l177.152-153.6h34.304c37.376 0 67.584 30.208 67.584 67.584v338.944z" fill="#10A37F" p-id="2665"></path><path d="M138.752 329.216h26.624l7.68 38.4c1.536 8.704 2.048 16.896 3.584 26.112h0.512c1.536-8.704 3.072-17.408 5.12-26.112l8.704-38.4h23.04l9.216 38.4c2.048 8.704 3.584 16.896 5.12 26.112h0.512c1.536-8.704 2.048-17.408 3.584-26.112l7.168-38.4h25.088l-20.48 86.528h-31.232l-7.168-32.768c-1.536-8.192-3.072-15.872-4.608-25.088h-0.512c-1.536 9.216-2.56 17.408-4.096 25.088L189.44 415.744h-30.72l-19.968-86.528zM275.456 391.68c0-18.432 14.336-28.16 47.616-31.744-0.512-7.168-4.096-11.264-12.8-11.264-6.656 0-13.824 2.56-22.528 7.68l-9.216-17.92c11.264-6.656 23.552-11.264 36.864-11.264 22.016 0 34.816 12.288 34.816 39.424v49.152h-22.016l-2.048-8.704h-0.512c-7.168 6.144-14.848 10.752-24.576 10.752-15.872 0-25.6-11.776-25.6-26.112z m47.616-1.536v-13.824c-16.896 2.048-22.016 7.168-22.016 13.312 0 5.12 3.584 7.68 9.216 7.68 5.12-0.512 9.216-3.072 12.8-7.168zM370.688 383.488v-33.28h-11.776v-19.968l13.312-1.024 3.072-23.04h22.016v23.04h20.48v20.992h-20.48v32.768c0 9.728 4.608 13.312 10.752 13.312 2.56 0 5.632-1.024 7.68-1.536l4.096 19.456c-4.608 1.536-10.752 3.072-19.456 3.072-20.48 0.512-29.696-13.312-29.696-33.792zM426.496 372.736c0-27.648 19.968-45.056 40.96-45.056 24.576 0 36.864 17.92 36.864 41.472 0 4.608-0.512 9.728-1.024 11.776h-50.688c2.56 11.776 10.752 16.896 21.504 16.896 6.144 0 11.776-2.048 17.92-5.632l8.704 16.384c-8.704 6.144-20.48 9.728-30.72 9.728-24.576-0.512-43.52-17.408-43.52-45.568zM481.28 363.008c0-8.704-3.584-14.848-13.824-14.848-7.168 0-13.824 4.608-15.872 14.848H481.28zM521.216 329.216h22.016l2.048 14.848h0.512c6.144-11.776 15.872-16.896 24.576-16.896 5.12 0 8.192 0.512 10.24 2.048l-4.608 23.04c-3.072-0.512-5.632-1.536-9.728-1.536-6.144 0-13.824 4.096-18.432 15.36v49.152h-26.624V329.216z" fill="#10A37F" p-id="2666"></path></svg>